<svg width="32" height="54" xmlns="http://www.w3.org/2000/svg" viewBox="0 0 32 54">
	<g id="svg_1" transform="translate(10,70) scale(0.05000000074505806,-0.05000000074505806) ">
		<path id="bracket" fill="#fff" d="m26,676q0,73 -36,101q-36,28 -104,28l0,100q69,0 104.5,29.5q35.5,29.5 35.5,95.5l0,128q0,76 39.5,119q39.5,43 117.5,43l150,0l0,-110l-80,0q-29,0 -48.5,-4q-19.5,-4 -31.5,-15q-12,-11 -17,-30.5q-5,-19.5 -5,-50.5l0,-114q0,-66 -36,-97.5q-36,-31.5 -94,-36.5l0,-10q57,-4 93.5,-38.5q36.5,-34.5 36.5,-99.5l0,-114q0,-31 5,-50.5q5,-19.5 17,-30.5q12,-11 32,-15q20,-4 49,-4l79,0l0,-110l-150,0q-75,0 -116,40q-41,40 -41,121l0,125z"/>
	</g>
</svg>