<?xml version="1.0" encoding="utf-8"?>
<!-- Generator: Adobe Illustrator 18.0.0, SVG Export Plug-In . SVG Version: 6.00 Build 0)  -->
<!DOCTYPE svg PUBLIC "-//W3C//DTD SVG 1.1//EN" "http://www.w3.org/Graphics/SVG/1.1/DTD/svg11.dtd">
<svg version="1.1" id="Layer_1" xmlns="http://www.w3.org/2000/svg" xmlns:xlink="http://www.w3.org/1999/xlink" x="0px" y="0px"
	 viewBox="0 0 206 90" enable-background="new 0 0 206 90" xml:space="preserve">
<g id="logo_23_">
	<rect fill="#0000FF" width="90" height="90"/>
	<g>
		<g>
			<path fill="#FFFFFF" d="M25.6,51.6c0-1.8-0.4-3-1.3-3.7c-0.9-0.7-2.2-1-3.8-1v-3.7c1.7,0,3-0.4,3.9-1.1c0.9-0.7,1.3-1.9,1.3-3.5
				v-4.7c0-1.9,0.5-3.3,1.5-4.4c1-1.1,2.4-1.6,4.3-1.6H37v4.1h-3c-0.7,0-1.3,0-1.8,0.1c-0.5,0.1-0.9,0.3-1.2,0.6
				c-0.3,0.3-0.5,0.6-0.6,1.1c-0.1,0.5-0.2,1.1-0.2,1.9v4.2c0,1.6-0.4,2.8-1.3,3.6s-2,1.2-3.5,1.4v0.4c1.4,0.1,2.6,0.6,3.5,1.4
				c0.9,0.9,1.4,2.1,1.4,3.7v4.2c0,0.8,0.1,1.4,0.2,1.9c0.1,0.5,0.3,0.9,0.6,1.1c0.3,0.3,0.7,0.5,1.2,0.6c0.5,0.1,1.1,0.1,1.8,0.1
				H37v4.1h-5.5c-1.8,0-3.3-0.5-4.3-1.5c-1-1-1.5-2.5-1.5-4.5V51.6z"/>
			<path fill="#FFFFFF" d="M64.4,56.2c0,2-0.5,3.5-1.5,4.5c-1,1-2.4,1.5-4.3,1.5H53v-4.1h2.9c0.7,0,1.3,0,1.8-0.1
				c0.5-0.1,0.9-0.3,1.2-0.6c0.3-0.3,0.5-0.6,0.6-1.1c0.1-0.5,0.2-1.1,0.2-1.9v-4.2c0-1.6,0.4-2.8,1.4-3.7c0.9-0.9,2.1-1.3,3.5-1.4
				v-0.4c-1.4-0.1-2.6-0.6-3.5-1.4c-0.9-0.8-1.3-2-1.3-3.6v-4.2c0-0.8-0.1-1.4-0.2-1.9c-0.1-0.5-0.4-0.9-0.6-1.1
				c-0.3-0.3-0.7-0.5-1.2-0.6c-0.5-0.1-1.1-0.1-1.8-0.1h-3v-4.1h5.5c1.9,0,3.4,0.5,4.3,1.6c1,1.1,1.5,2.5,1.5,4.4v4.7
				c0,1.6,0.4,2.8,1.3,3.5c0.9,0.7,2.2,1.1,3.9,1.1v3.7c-1.7,0-3,0.3-3.8,1c-0.9,0.7-1.3,1.9-1.3,3.7V56.2z"/>
		</g>
	</g>
</g>
<g>
	<path fill="#231F20" d="M101.8,11.2h9.6v2.7h-6.6v3.8h6.1v2.7h-6.1v6.3h-2.9V11.2z"/>
	<path fill="#231F20" d="M114.1,24.4h2.7v-6.2h-2.7v-2.4h4.8l0.3,1.5h0.1c0.4-0.5,0.9-0.9,1.4-1.2c0.5-0.3,1.1-0.5,1.8-0.5
		c0.9,0,1.5,0.3,2,1c0.5,0.7,0.7,1.7,0.7,3.3h-2.5c0-0.5-0.1-0.9-0.2-1.2s-0.4-0.4-0.7-0.4c-0.6,0-1,0.1-1.4,0.4
		c-0.4,0.3-0.6,0.6-0.9,1v4.7h4.7v2.4h-10.1V24.4z"/>
	<path fill="#231F20" d="M127.4,21.2c0-0.9,0.1-1.8,0.4-2.5c0.3-0.7,0.7-1.3,1.2-1.8c0.5-0.5,1.1-0.9,1.8-1.1
		c0.7-0.3,1.5-0.4,2.3-0.4c0.9,0,1.7,0.1,2.4,0.4c0.7,0.3,1.3,0.7,1.8,1.2c0.5,0.5,0.9,1.1,1.1,1.9c0.3,0.7,0.4,1.5,0.4,2.4
		c0,0.9-0.1,1.8-0.4,2.5c-0.3,0.7-0.7,1.3-1.2,1.8c-0.5,0.5-1.1,0.9-1.8,1.1c-0.7,0.3-1.5,0.4-2.3,0.4c-0.9,0-1.7-0.1-2.4-0.4
		c-0.7-0.3-1.3-0.7-1.8-1.2c-0.5-0.5-0.9-1.1-1.1-1.9C127.5,22.9,127.4,22.1,127.4,21.2z M130.3,21.2c0,0.5,0.1,0.9,0.2,1.4
		c0.1,0.4,0.3,0.8,0.6,1.1c0.2,0.3,0.5,0.6,0.9,0.7c0.3,0.2,0.7,0.3,1.2,0.3c0.8,0,1.5-0.3,2-0.8c0.5-0.5,0.8-1.4,0.8-2.6
		c0-1-0.2-1.9-0.7-2.5c-0.5-0.6-1.2-0.9-2.1-0.9c-0.4,0-0.8,0.1-1.1,0.2c-0.3,0.1-0.6,0.3-0.9,0.6c-0.3,0.3-0.4,0.6-0.6,1.1
		C130.4,20.1,130.3,20.6,130.3,21.2z"/>
	<path fill="#231F20" d="M140.2,15.7h3.8l0.3,1.5h0.1c0.3-0.5,0.8-0.9,1.4-1.2c0.6-0.4,1.4-0.5,2.2-0.5c0.5,0,1,0.1,1.5,0.2
		c0.5,0.1,0.9,0.4,1.2,0.7c0.3,0.3,0.6,0.8,0.8,1.4c0.2,0.6,0.3,1.3,0.3,2.2v6.9H149v-6.3c0-0.9-0.2-1.6-0.6-2
		c-0.4-0.4-0.9-0.6-1.5-0.6c-0.5,0-1,0.2-1.5,0.5c-0.4,0.3-0.7,0.7-0.9,1.2v7.2h-2.8v-8.7h-1.5V15.7z"/>
	<path fill="#231F20" d="M155.8,18.1h-2.1v-2.4h2.1v-2.5l2.8-0.8v3.4h5.6v2.4h-5.6v3.2c0,1.1,0.2,2,0.6,2.5c0.4,0.5,1,0.8,1.7,0.8
		c0.4,0,0.7,0,1.1-0.1c0.3-0.1,0.6-0.2,0.8-0.4c0.3-0.1,0.5-0.3,0.7-0.5c0.2-0.2,0.4-0.3,0.6-0.5l1.3,2c-0.2,0.3-0.5,0.6-0.9,0.8
		c-0.4,0.2-0.8,0.5-1.2,0.6c-0.4,0.2-0.9,0.3-1.3,0.4c-0.5,0.1-0.9,0.2-1.4,0.2c-1.6,0-2.8-0.5-3.6-1.4c-0.8-0.9-1.2-2.4-1.2-4.4
		V18.1z"/>
	<path fill="#231F20" d="M178.2,25.6c-0.2,0.2-0.4,0.4-0.7,0.5c-0.3,0.2-0.6,0.3-1,0.5c-0.4,0.1-0.8,0.3-1.3,0.4
		c-0.5,0.1-1,0.1-1.5,0.1c-0.9,0-1.7-0.1-2.5-0.4c-0.7-0.3-1.3-0.7-1.8-1.2c-0.5-0.5-0.9-1.1-1.2-1.8c-0.3-0.7-0.4-1.5-0.4-2.5
		c0-1,0.2-1.8,0.5-2.6s0.7-1.3,1.2-1.8c0.5-0.5,1.1-0.9,1.8-1.1c0.7-0.2,1.5-0.4,2.3-0.4c0.5,0,1.1,0.1,1.7,0.2
		c0.6,0.1,1.1,0.4,1.6,0.8c0.5,0.4,0.9,0.8,1.2,1.5c0.3,0.6,0.5,1.4,0.5,2.3c0,0.6-0.1,1.3-0.2,2.1h-7.7c0,0.5,0.1,0.9,0.3,1.2
		c0.2,0.3,0.4,0.6,0.7,0.8c0.3,0.2,0.6,0.4,1,0.5c0.4,0.1,0.8,0.1,1.2,0.1c0.9,0,1.6-0.1,2.1-0.3c0.6-0.2,1-0.5,1.3-0.8L178.2,25.6z
		 M173.5,17.7c-0.4,0-0.7,0.1-1.1,0.2s-0.6,0.3-0.9,0.5c-0.3,0.2-0.5,0.5-0.7,0.8c-0.2,0.3-0.3,0.6-0.3,1h5.3c0-0.7-0.2-1.3-0.6-1.8
		C174.9,17.9,174.3,17.7,173.5,17.7z"/>
	<path fill="#231F20" d="M180.3,15.7h3.8l0.3,1.5h0.1c0.3-0.5,0.8-0.9,1.4-1.2c0.6-0.4,1.4-0.5,2.2-0.5c0.5,0,1,0.1,1.5,0.2
		c0.5,0.1,0.9,0.4,1.2,0.7c0.3,0.3,0.6,0.8,0.8,1.4c0.2,0.6,0.3,1.3,0.3,2.2v6.9H189v-6.3c0-0.9-0.2-1.6-0.6-2
		c-0.4-0.4-0.9-0.6-1.5-0.6c-0.5,0-1,0.2-1.5,0.5c-0.4,0.3-0.7,0.7-0.9,1.2v7.2h-2.8v-8.7h-1.5V15.7z"/>
	<path fill="#231F20" d="M199.9,11.2h4.5v9.6c0,1.1,0.1,2.2,0.2,3.3c0,0.1,0,0.1,0,0.2h1.4v2.4h-3.5l-0.3-1.4h-0.1
		c-0.1,0.3-0.3,0.5-0.6,0.7c-0.2,0.2-0.5,0.4-0.8,0.5c-0.3,0.2-0.6,0.3-1,0.4c-0.4,0.1-0.7,0.1-1.1,0.1c-0.7,0-1.3-0.1-1.9-0.3
		c-0.6-0.2-1.1-0.6-1.6-1c-0.4-0.5-0.8-1.1-1.1-1.8c-0.3-0.7-0.4-1.6-0.4-2.5c0-0.9,0.1-1.8,0.4-2.5c0.3-0.7,0.7-1.4,1.2-1.9
		c0.5-0.5,1.1-0.9,1.8-1.2c0.7-0.3,1.4-0.4,2.2-0.4c0.4,0,0.9,0,1.3,0.1c0.4,0.1,0.7,0.1,1,0.3v-2.1h-1.7V11.2z M199.4,24.7
		c0.5,0,1-0.1,1.5-0.4c0.4-0.3,0.7-0.7,0.8-1.2v-4.7c-0.2-0.2-0.5-0.3-0.8-0.4c-0.4-0.1-0.7-0.1-1.1-0.1s-0.8,0.1-1.1,0.2
		c-0.4,0.1-0.7,0.3-1,0.6c-0.3,0.3-0.5,0.7-0.7,1.1c-0.2,0.5-0.2,1-0.2,1.7c0,0.9,0.2,1.7,0.7,2.3C197.8,24.4,198.5,24.7,199.4,24.7
		z"/>
	<path fill="#231F20" d="M109.4,37.9h2.8v10c0,1-0.1,1.9-0.4,2.6c-0.3,0.7-0.6,1.3-1.1,1.8c-0.5,0.5-1,0.8-1.7,1.1
		c-0.6,0.2-1.4,0.4-2.1,0.4c-1.9,0-3.2-0.5-4.1-1.4c-0.9-0.9-1.3-2.3-1.3-4.1V37.9h2.9v9.7c0,1.2,0.2,2,0.6,2.6
		c0.4,0.5,1.1,0.8,2,0.8c0.9,0,1.5-0.3,1.9-0.9c0.4-0.6,0.6-1.4,0.6-2.5V37.9z"/>
	<path fill="#231F20" d="M114,42.4h3.8l0.3,1.5h0.1c0.3-0.5,0.8-0.9,1.4-1.2c0.6-0.4,1.4-0.5,2.2-0.5c0.5,0,1,0.1,1.5,0.2
		c0.5,0.1,0.9,0.4,1.2,0.7c0.3,0.3,0.6,0.8,0.8,1.4c0.2,0.6,0.3,1.3,0.3,2.2v6.9h-2.8v-6.3c0-0.9-0.2-1.6-0.6-2
		c-0.4-0.4-0.9-0.6-1.5-0.6c-0.5,0-1,0.2-1.5,0.5c-0.4,0.3-0.7,0.7-0.9,1.2v7.2h-2.8v-8.7H114V42.4z"/>
	<path fill="#231F20" d="M128.3,51.1h3.8v-6.2h-3.8v-2.4h6.6v8.7h4v2.4h-10.6V51.1z M131.6,39.3c0-0.5,0.2-0.9,0.5-1.2
		c0.3-0.3,0.8-0.5,1.4-0.5c0.6,0,1.1,0.2,1.4,0.5c0.4,0.3,0.5,0.7,0.5,1.2c0,0.5-0.2,0.9-0.5,1.2c-0.4,0.3-0.8,0.5-1.4,0.5
		c-0.6,0-1-0.2-1.4-0.5C131.8,40.2,131.6,39.8,131.6,39.3z"/>
	<path fill="#231F20" d="M141.2,47.9c0-0.9,0.1-1.8,0.4-2.5c0.3-0.7,0.7-1.3,1.2-1.8c0.5-0.5,1.1-0.9,1.8-1.1
		c0.7-0.3,1.5-0.4,2.3-0.4c0.9,0,1.7,0.1,2.4,0.4c0.7,0.3,1.3,0.7,1.8,1.2s0.9,1.1,1.1,1.9c0.3,0.7,0.4,1.5,0.4,2.4
		c0,0.9-0.1,1.8-0.4,2.5c-0.3,0.7-0.7,1.3-1.2,1.8c-0.5,0.5-1.1,0.9-1.8,1.1c-0.7,0.3-1.5,0.4-2.3,0.4c-0.9,0-1.7-0.1-2.4-0.4
		c-0.7-0.3-1.3-0.7-1.8-1.2c-0.5-0.5-0.9-1.1-1.1-1.9C141.3,49.6,141.2,48.8,141.2,47.9z M144.1,47.9c0,0.5,0.1,0.9,0.2,1.4
		c0.1,0.4,0.3,0.8,0.6,1.1c0.2,0.3,0.5,0.6,0.9,0.7c0.3,0.2,0.7,0.3,1.2,0.3c0.8,0,1.5-0.3,2-0.8c0.5-0.5,0.8-1.4,0.8-2.6
		c0-1-0.2-1.9-0.7-2.5c-0.5-0.6-1.2-0.9-2.1-0.9c-0.4,0-0.8,0.1-1.1,0.2c-0.3,0.1-0.6,0.3-0.9,0.6c-0.3,0.3-0.4,0.6-0.6,1.1
		C144.1,46.8,144.1,47.3,144.1,47.9z"/>
	<path fill="#231F20" d="M154,42.4h3.8l0.3,1.5h0.1c0.3-0.5,0.8-0.9,1.4-1.2c0.6-0.4,1.4-0.5,2.2-0.5c0.5,0,1,0.1,1.5,0.2
		c0.5,0.1,0.9,0.4,1.2,0.7c0.3,0.3,0.6,0.8,0.8,1.4c0.2,0.6,0.3,1.3,0.3,2.2v6.9h-2.8v-6.3c0-0.9-0.2-1.6-0.6-2
		c-0.4-0.4-0.9-0.6-1.5-0.6c-0.5,0-1,0.2-1.5,0.5c-0.4,0.3-0.7,0.7-0.9,1.2v7.2h-2.8v-8.7H154V42.4z"/>
	<path fill="#231F20" d="M109.9,75h2.4v4.4c-0.5,0.3-1,0.6-1.8,0.8c-0.7,0.2-1.4,0.3-2.2,0.3c-0.9,0-1.8-0.1-2.7-0.4
		c-0.9-0.3-1.6-0.8-2.2-1.4c-0.6-0.6-1.2-1.5-1.5-2.5c-0.4-1-0.6-2.3-0.6-3.7c0-1.5,0.2-2.8,0.7-3.8c0.4-1,1-1.9,1.7-2.5
		c0.7-0.6,1.5-1.1,2.3-1.4c0.8-0.3,1.7-0.4,2.5-0.4c0.9,0,1.6,0.1,2.2,0.2c0.6,0.1,1.1,0.3,1.5,0.5v4.6h-2.4v-2.5
		c-0.4-0.1-0.9-0.1-1.4-0.1c-0.6,0-1.1,0.1-1.6,0.3c-0.5,0.2-0.9,0.5-1.3,1c-0.4,0.4-0.6,1-0.8,1.7c-0.2,0.7-0.3,1.5-0.3,2.4
		c0,0.8,0.1,1.5,0.3,2.2c0.2,0.7,0.5,1.2,0.8,1.7c0.4,0.5,0.8,0.8,1.3,1.1c0.5,0.3,1.1,0.4,1.8,0.4c0.5,0,0.9,0,1.4-0.1V75z"/>
	<path fill="#231F20" d="M114.5,74.6c0-0.9,0.1-1.8,0.4-2.5c0.3-0.7,0.7-1.3,1.2-1.8c0.5-0.5,1.1-0.9,1.8-1.1
		c0.7-0.3,1.5-0.4,2.3-0.4c0.9,0,1.7,0.1,2.4,0.4c0.7,0.3,1.3,0.7,1.8,1.2c0.5,0.5,0.9,1.1,1.1,1.9c0.3,0.7,0.4,1.5,0.4,2.4
		c0,0.9-0.1,1.8-0.4,2.5c-0.3,0.7-0.7,1.3-1.2,1.8c-0.5,0.5-1.1,0.9-1.8,1.1c-0.7,0.3-1.5,0.4-2.3,0.4c-0.9,0-1.7-0.1-2.4-0.4
		c-0.7-0.3-1.3-0.7-1.8-1.2c-0.5-0.5-0.9-1.1-1.1-1.9C114.6,76.3,114.5,75.5,114.5,74.6z M117.4,74.6c0,0.5,0.1,0.9,0.2,1.4
		c0.1,0.4,0.3,0.8,0.6,1.1c0.2,0.3,0.5,0.6,0.9,0.7c0.3,0.2,0.7,0.3,1.2,0.3c0.8,0,1.5-0.3,2-0.8c0.5-0.5,0.8-1.4,0.8-2.6
		c0-1-0.2-1.9-0.7-2.5c-0.5-0.6-1.2-0.9-2.1-0.9c-0.4,0-0.8,0.1-1.1,0.2c-0.3,0.1-0.6,0.3-0.9,0.6c-0.3,0.3-0.4,0.6-0.6,1.1
		S117.4,74,117.4,74.6z"/>
	<path fill="#231F20" d="M127.3,69.1h3.8l0.3,1.5h0.1c0.3-0.5,0.8-0.9,1.4-1.2c0.6-0.4,1.4-0.5,2.2-0.5c0.5,0,1,0.1,1.5,0.2
		c0.5,0.1,0.9,0.4,1.2,0.7c0.3,0.3,0.6,0.8,0.8,1.4c0.2,0.6,0.3,1.3,0.3,2.2v6.9h-2.8v-6.3c0-0.9-0.2-1.6-0.6-2
		c-0.4-0.4-0.9-0.6-1.5-0.6c-0.5,0-1,0.2-1.5,0.5c-0.4,0.3-0.7,0.7-0.9,1.2v7.2h-2.8v-8.7h-1.5V69.1z"/>
	<path fill="#231F20" d="M141.9,80.2v-2.4h2.5v-6.2h-2.6v-2.4h2.6v-0.6c0-0.7,0.1-1.3,0.4-1.8c0.2-0.5,0.5-0.9,0.9-1.2
		c0.4-0.3,0.8-0.6,1.3-0.7s1-0.2,1.6-0.2c1,0,1.8,0.1,2.4,0.3c0.6,0.2,1.2,0.4,1.6,0.6l-0.8,2.2c-0.3-0.2-0.7-0.3-1.1-0.4
		c-0.4-0.1-0.9-0.2-1.5-0.2c-0.8,0-1.3,0.2-1.6,0.5c-0.3,0.4-0.5,0.9-0.5,1.6h4.5v2.4h-4.5v6.2h4.5v2.4H141.9z"/>
</g>
</svg>
