<?xml version="1.0" encoding="utf-8"?>
<!-- Generator: Adobe Illustrator 18.0.0, SVG Export Plug-In . SVG Version: 6.00 Build 0)  -->
<!DOCTYPE svg PUBLIC "-//W3C//DTD SVG 1.1//EN" "http://www.w3.org/Graphics/SVG/1.1/DTD/svg11.dtd">
<svg version="1.1" id="Layer_1" xmlns="http://www.w3.org/2000/svg" xmlns:xlink="http://www.w3.org/1999/xlink" x="0px" y="0px"
	 viewBox="0 0 110 17" enable-background="new 0 0 110 17" xml:space="preserve">
<g>
	<path fill="#FFFFFF" d="M36,9.5c0.7,0,1.2,0.7,1.2,1.3c0,0.7-0.5,1.4-1.2,1.4c-0.9,0-1.4-0.7-1.4-1.4C34.7,10.2,35.2,9.5,36,9.5"/>
	<path fill="#FFFFFF" d="M46,11.2c-0.8,0.6-1.9,1-2.9,1c-2.5,0-4.1-1.6-4.1-4c0-2.2,1.5-4,4.1-4c2,0,3.6,1.4,3.6,3.6
		c0,0.5,0,0.8-0.1,1.1h-5.6c0.2,1.2,1.1,1.8,2.3,1.8c0.9,0,1.7-0.3,2.2-0.7L46,11.2z M40.8,7.4h3.8c0-0.9-0.6-1.7-1.8-1.7
		C41.7,5.7,41,6.4,40.8,7.4"/>
	<polygon fill="#FFFFFF" points="52.8,8 55.5,12 53.1,12 51.3,9.2 49.4,12 47.2,12 49.9,8.1 47.3,4.3 49.8,4.3 51.4,6.9 53.1,4.3 
		55.3,4.3 	"/>
	<path fill="#FFFFFF" d="M63.4,10.9c-0.6,0.9-1.8,1.3-3.1,1.3c-2.5,0-4.2-1.6-4.2-4c0-2.2,1.6-4,4-4c1.3,0,2.4,0.3,3.1,1l-0.9,1.6
		C61.7,6.2,61.1,6,60.4,6c-1.1,0-2.1,0.8-2.1,2.2c0,1.4,1.1,2.2,2.2,2.2c0.8,0,1.5-0.4,2-0.9L63.4,10.9z"/>
	<path fill="#FFFFFF" d="M64.8,0h2.1v5c0.5-0.5,1.3-0.8,2.2-0.8c1.9,0,3.2,1,3.2,3.4V12h-2V7.8c0-1.1-0.6-1.8-1.7-1.8
		c-0.6,0-1.2,0.4-1.7,0.9V12h-2.1V0z"/>
	<path fill="#FFFFFF" d="M83.5,4.3h2v0.8c0.5-0.5,1.3-0.9,2.2-0.9c1.9,0,3.2,0.9,3.2,3.3V12h-2V7.8c0-1.2-0.6-1.8-1.7-1.8
		c-0.7,0-1.2,0.5-1.7,0.9V12h-2V4.3z"/>
	<path fill="#FFFFFF" d="M108.4,11.2c-0.8,0.6-1.9,1-2.9,1c-2.5,0-4.1-1.6-4.1-4c0-2.2,1.5-4,4.1-4c2,0,3.6,1.4,3.6,3.6
		c0,0.5,0,0.8-0.1,1.1h-5.6c0.2,1.2,1.1,1.8,2.3,1.8c0.9,0,1.7-0.3,2.2-0.7L108.4,11.2z M103.3,7.4h3.8c0-0.9-0.6-1.7-1.8-1.7
		C104.1,5.8,103.5,6.4,103.3,7.4"/>
	<path fill="#FFFFFF" d="M101.4,12.7c-0.3-0.4-0.6-0.7-1-0.9c-0.4-0.2-0.9-0.4-1.4-0.5c-0.5-0.1-1-0.1-1.6-0.1c-0.1,0-0.3,0-0.4,0
		c-0.8,0-1.8,0.2-1.8,0.2s-0.2-0.5,0.3-0.9c0.2-0.2,0.6-0.4,0.6-0.4l0,0c1.9-0.1,3.2-1.4,3.2-3c0-0.4-0.1-0.7-0.2-1.1l1.4-0.3
		L100.4,4l-2.5,0.5C97.3,4.2,96.6,4,95.8,4c-2.2,0-3.5,1.4-3.5,3.1c0,1.2,0.7,2.2,1.9,2.7c-0.7,0.6-1.5,2-0.3,3.5l2-0.3
		c0.6-0.1,1.1-0.1,1.6-0.1c0.7,0,1.2,0.1,1.6,0.3c0.7,0.4,0.8,1.1,0.3,1.7c-0.4,0.4-1,0.6-1,0.6l0.9,1.6c0,0,1-0.2,1.8-1.2
		C102.3,14.5,101.7,13.1,101.4,12.7 M95.8,5.7c1,0,1.5,0.6,1.5,1.4c0,0.8-0.6,1.3-1.5,1.3c-0.9,0-1.5-0.6-1.5-1.3
		C94.3,6.3,94.9,5.7,95.8,5.7"/>
	<path fill="#FFFFFF" d="M79.3,11.1L79.3,11.1c-0.4,0.4-0.7,0.7-1.2,0.9c-0.5,0.2-0.9,0.3-1.4,0.3c-0.4,0-0.7-0.1-1.1-0.2
		c-0.3-0.1-0.6-0.3-0.9-0.5c-0.3-0.2-0.5-0.5-0.6-0.8c-0.2-0.3-0.2-0.7-0.2-1.1c0-0.5,0.1-0.8,0.3-1.2c0.2-0.3,0.4-0.6,0.7-0.8
		c0.3-0.2,0.6-0.4,1-0.5c0.4-0.1,0.8-0.2,1.1-0.3c0.4-0.1,0.8-0.1,1.2-0.1c0.4,0,0.8,0,1.1,0c0-0.4-0.1-0.9-0.4-1.1
		c-0.3-0.3-0.8-0.4-1.2-0.4c-0.4,0-0.8,0.1-1.1,0.3s-0.6,0.4-1,0.6l-1.2-1.2c0.5-0.4,1-0.9,1.6-1.1C76.7,4,77.2,4,77.9,4
		c0.7,0,1.2,0.1,1.7,0.3c0.5,0.2,0.7,0.5,1,0.8c0.3,0.3,0.5,0.8,0.6,1.3c0.1,0.5,0.2,1.1,0.2,1.7v4h-2V11.1z M78.5,8.6
		c-0.2,0-0.4,0-0.7,0c-0.3,0-0.5,0.1-0.8,0.1c-0.3,0.1-0.5,0.2-0.7,0.3c-0.2,0.2-0.3,0.4-0.3,0.6c0,0.3,0.1,0.5,0.4,0.7
		c0.2,0.1,0.5,0.2,0.8,0.2c1,0,1.7-0.5,1.9-0.8c0.1-0.2,0.1-0.4,0.1-0.6V8.6H78.5z"/>
	<path fill="#FFFFFF" d="M30.8,11.3c-0.5,0.5-1.2,0.9-2.2,0.9c-2.2,0-3.6-1.6-3.6-3.9c0-2.4,1.7-4.1,4.2-4.1c0.7,0,1.2,0.1,1.6,0.4
		V0.2h2v12h-2V11.3z M30.8,9.5V6.6c-0.5-0.3-1-0.5-1.5-0.5c-1.2,0-2.2,0.8-2.2,2.2c0,1.4,0.9,2.1,1.9,2.1
		C29.7,10.4,30.4,9.9,30.8,9.5"/>
	<path fill="#FFFFFF" d="M23.7,7.7c0-2.2-1.7-3.6-3.6-3.6c-1.2,0-2.2,0.4-2.8,1c0,0,0,0,0,0c-0.3-0.3-0.6-0.6-1-0.8
		C15.7,4.2,15.3,4,14.5,4c-0.7,0-2.3,0.2-3.4,1.4l1.2,1.2c0.3-0.3,0.6-0.5,1-0.6c0.3-0.2,0.7-0.3,1.1-0.3c0.4,0,0.9,0.1,1.2,0.4
		c0.3,0.3,0.4,0.7,0.4,1.2c-1.3-0.2-2.6-0.1-3.4,0.1c-0.4,0.1-0.7,0.3-1,0.5C11.2,8,11,8.3,10.8,8.6c-0.2,0.3-0.4,1.3,0,2.2
		c0.7,1.4,2.4,1.7,4.2,1.1c1.2-0.4,1.8-1.4,1.8-1.4c0.7,1.2,1.9,1.6,3.3,1.6c1.1,0,2.2-0.3,2.9-1l-0.6-1.6c-0.5,0.3-1.3,0.8-2.2,0.8
		c-1.2,0-2.1-0.5-2.3-1.6h5.6C23.7,8.6,23.7,8.2,23.7,7.7 M13.9,10.4c-0.8,0-1.4-0.2-1.3-0.9c0.1-0.8,1.3-0.9,1.9-0.9
		c0.5,0,1.5,0.1,1.5,0.1S15.6,10.4,13.9,10.4 M18.1,7.3c0.2-0.8,0.8-1.5,1.9-1.6c1.1-0.1,1.9,0.6,1.9,1.6H18.1z"/>
	<path fill="#FFFFFF" d="M1.8,0.1h2.1v5c0.5-0.5,1.3-0.8,2.2-0.8c1.9,0,3.2,1,3.2,3.4v4.5h-2V7.9c0-1.1-0.6-1.8-1.7-1.8
		C5,6.1,4.3,6.6,3.9,7v5.1H1.8V0.1z"/>
</g>
</svg>
