<?xml version="1.0" encoding="utf-8"?><svg xmlns="http://www.w3.org/2000/svg" xmlns:xlink="http://www.w3.org/1999/xlink"><symbol viewBox="0 0 32 54" id="bracket"><path fill="#fff" d="M11.3 36.2q0-3.65-1.8-5.05t-5.2-1.4v-5q3.45 0 5.225-1.475Q11.3 21.8 11.3 18.5v-6.4q0-3.8 1.975-5.95Q15.25 4 19.15 4h7.5v5.5h-4q-1.45 0-2.425.2-.975.2-1.575.75t-.85 1.525q-.25.975-.25 2.525v5.7q0 3.3-1.8 4.875-1.8 1.575-4.7 1.825v.5q2.85.2 4.675 1.925Q17.55 31.05 17.55 34.3V40q0 1.55.25 2.525.25.975.85 1.525.6.55 1.6.75 1 .2 2.45.2h3.95v5.5h-7.5q-3.75 0-5.8-2t-2.05-6.05V36.2z"/></symbol><symbol preserveAspectRatio="xMidYMid" viewBox="0 0 116 223" id="facebook"><title>background</title><path fill="none" d="M-1-1h118v225H-1z"/><g><title>Layer 1</title><path fill="#FFF" d="M74.635 219v-99.136h33.277l4.982-38.635h-38.26V56.56c0-11.185 3.108-18.808 19.15-18.808l20.458-.01V3.19c-3.54-.47-15.684-1.523-29.812-1.523-29.498 0-49.692 18.005-49.692 51.07V81.23H1.376v38.634h33.362V219h39.897"/></g></symbol><symbol viewBox="0 0 256 209" preserveAspectRatio="xMidYMid" id="twitter"><path d="M256 25.45c-9.42 4.177-19.542 7-30.166 8.27 10.845-6.5 19.172-16.793 23.093-29.057a105.183 105.183 0 0 1-33.35 12.745C205.994 7.2 192.344.822 177.238.822c-29.007 0-52.524 23.516-52.524 52.52 0 4.117.465 8.125 1.36 11.97-43.65-2.19-82.35-23.1-108.255-54.876-4.52 7.757-7.11 16.78-7.11 26.404 0 18.222 9.274 34.297 23.366 43.716a52.312 52.312 0 0 1-23.79-6.57c-.003.22-.003.44-.003.66 0 25.448 18.104 46.676 42.13 51.5a52.592 52.592 0 0 1-23.718.9c6.683 20.867 26.08 36.052 49.062 36.476-17.975 14.086-40.622 22.483-65.228 22.483-4.24 0-8.42-.25-12.53-.734 23.243 14.903 50.85 23.598 80.51 23.598 96.607 0 149.434-80.03 149.434-149.435 0-2.278-.05-4.543-.152-6.795A106.748 106.748 0 0 0 256 25.45" fill="#fff"/></symbol></svg>