<?xml version="1.0" encoding="utf-8"?><!DOCTYPE svg PUBLIC "-//W3C//DTD SVG 1.1//EN" "http://www.w3.org/Graphics/SVG/1.1/DTD/svg11.dtd"><svg xmlns="http://www.w3.org/2000/svg" xmlns:xlink="http://www.w3.org/1999/xlink"><symbol viewBox="0 0 32 54" id="bracket"><path fill="#fff" d="M11.3 36.2q0-3.65-1.8-5.05t-5.2-1.4v-5q3.45 0 5.225-1.475Q11.3 21.8 11.3 18.5v-6.4q0-3.8 1.975-5.95Q15.25 4 19.15 4h7.5v5.5h-4q-1.45 0-2.425.2-.975.2-1.575.75t-.85 1.525q-.25.975-.25 2.525v5.7q0 3.3-1.8 4.875-1.8 1.575-4.7 1.825v.5q2.85.2 4.675 1.925Q17.55 31.05 17.55 34.3V40q0 1.55.25 2.525.25.975.85 1.525.6.55 1.6.75 1 .2 2.45.2h3.95v5.5h-7.5q-3.75 0-5.8-2t-2.05-6.05V36.2z"/></symbol><symbol preserveAspectRatio="xMidYMid" viewBox="0 0 116 223" id="facebook"><path class="bsocial-svg bfacebook" d="M74.635 219v-99.136h33.277l4.982-38.635h-38.26V56.56c0-11.185 3.108-18.808 19.15-18.808l20.458-.01V3.19c-3.54-.47-15.684-1.523-29.812-1.523-29.498 0-49.692 18.005-49.692 51.07V81.23H1.376v38.634h33.362V219h39.897"/></symbol><symbol viewBox="0 0 206 90" id="func"><path fill="#00F" d="M0 0h90v90H0z"/><g fill="#FFF"><path d="M25.6 51.6c0-1.8-.4-3-1.3-3.7-.9-.7-2.2-1-3.8-1v-3.7c1.7 0 3-.4 3.9-1.1.9-.7 1.3-1.9 1.3-3.5v-4.7c0-1.9.5-3.3 1.5-4.4 1-1.1 2.4-1.6 4.3-1.6H37V32h-3c-.7 0-1.3 0-1.8.1s-.9.3-1.2.6c-.3.3-.5.6-.6 1.1-.1.5-.2 1.1-.2 1.9v4.2c0 1.6-.4 2.8-1.3 3.6s-2 1.2-3.5 1.4v.4c1.4.1 2.6.6 3.5 1.4.9.9 1.4 2.1 1.4 3.7v4.2c0 .8.1 1.4.2 1.9s.3.9.6 1.1c.3.3.7.5 1.2.6.5.1 1.1.1 1.8.1H37v4.1h-5.5c-1.8 0-3.3-.5-4.3-1.5s-1.5-2.5-1.5-4.5v-4.8zM64.4 56.2c0 2-.5 3.5-1.5 4.5s-2.4 1.5-4.3 1.5H53v-4.1h2.9c.7 0 1.3 0 1.8-.1s.9-.3 1.2-.6c.3-.3.5-.6.6-1.1.1-.5.2-1.1.2-1.9v-4.2c0-1.6.4-2.8 1.4-3.7.9-.9 2.1-1.3 3.5-1.4v-.4c-1.4-.1-2.6-.6-3.5-1.4-.9-.8-1.3-2-1.3-3.6v-4.2c0-.8-.1-1.4-.2-1.9s-.4-.9-.6-1.1c-.3-.3-.7-.5-1.2-.6-.5-.1-1.1-.1-1.8-.1h-3v-4.1h5.5c1.9 0 3.4.5 4.3 1.6 1 1.1 1.5 2.5 1.5 4.4v4.7c0 1.6.4 2.8 1.3 3.5.9.7 2.2 1.1 3.9 1.1v3.7c-1.7 0-3 .3-3.8 1-.9.7-1.3 1.9-1.3 3.7v4.8z"/></g><g fill="#231F20"><path d="M101.8 11.2h9.6v2.7h-6.6v3.8h6.1v2.7h-6.1v6.3h-2.9V11.2zM114.1 24.4h2.7v-6.2h-2.7v-2.4h4.8l.3 1.5h.1c.4-.5.9-.9 1.4-1.2.5-.3 1.1-.5 1.8-.5.9 0 1.5.3 2 1s.7 1.7.7 3.3h-2.5c0-.5-.1-.9-.2-1.2s-.4-.4-.7-.4c-.6 0-1 .1-1.4.4-.4.3-.6.6-.9 1v4.7h4.7v2.4h-10.1v-2.4zM127.4 21.2c0-.9.1-1.8.4-2.5.3-.7.7-1.3 1.2-1.8s1.1-.9 1.8-1.1c.7-.3 1.5-.4 2.3-.4.9 0 1.7.1 2.4.4.7.3 1.3.7 1.8 1.2s.9 1.1 1.1 1.9c.3.7.4 1.5.4 2.4 0 .9-.1 1.8-.4 2.5-.3.7-.7 1.3-1.2 1.8s-1.1.9-1.8 1.1c-.7.3-1.5.4-2.3.4-.9 0-1.7-.1-2.4-.4-.7-.3-1.3-.7-1.8-1.2s-.9-1.1-1.1-1.9c-.3-.7-.4-1.5-.4-2.4zm2.9 0c0 .5.1.9.2 1.4.1.4.3.8.6 1.1.2.3.5.6.9.7.3.2.7.3 1.2.3.8 0 1.5-.3 2-.8s.8-1.4.8-2.6c0-1-.2-1.9-.7-2.5-.5-.6-1.2-.9-2.1-.9-.4 0-.8.1-1.1.2-.3.1-.6.3-.9.6-.3.3-.4.6-.6 1.1-.2.3-.3.8-.3 1.4zM140.2 15.7h3.8l.3 1.5h.1c.3-.5.8-.9 1.4-1.2.6-.4 1.4-.5 2.2-.5.5 0 1 .1 1.5.2s.9.4 1.2.7c.3.3.6.8.8 1.4.2.6.3 1.3.3 2.2v6.9H149v-6.3c0-.9-.2-1.6-.6-2-.4-.4-.9-.6-1.5-.6-.5 0-1 .2-1.5.5-.4.3-.7.7-.9 1.2v7.2h-2.8v-8.7h-1.5v-2.5zM155.8 18.1h-2.1v-2.4h2.1v-2.5l2.8-.8v3.4h5.6v2.4h-5.6v3.2c0 1.1.2 2 .6 2.5.4.5 1 .8 1.7.8.4 0 .7 0 1.1-.1.3-.1.6-.2.8-.4.3-.1.5-.3.7-.5.2-.2.4-.3.6-.5l1.3 2c-.2.3-.5.6-.9.8-.4.2-.8.5-1.2.6-.4.2-.9.3-1.3.4-.5.1-.9.2-1.4.2-1.6 0-2.8-.5-3.6-1.4-.8-.9-1.2-2.4-1.2-4.4v-3.3zM178.2 25.6c-.2.2-.4.4-.7.5-.3.2-.6.3-1 .5-.4.1-.8.3-1.3.4-.5.1-1 .1-1.5.1-.9 0-1.7-.1-2.5-.4-.7-.3-1.3-.7-1.8-1.2s-.9-1.1-1.2-1.8c-.3-.7-.4-1.5-.4-2.5s.2-1.8.5-2.6.7-1.3 1.2-1.8 1.1-.9 1.8-1.1c.7-.2 1.5-.4 2.3-.4.5 0 1.1.1 1.7.2.6.1 1.1.4 1.6.8s.9.8 1.2 1.5c.3.6.5 1.4.5 2.3 0 .6-.1 1.3-.2 2.1h-7.7c0 .5.1.9.3 1.2.2.3.4.6.7.8.3.2.6.4 1 .5.4.1.8.1 1.2.1.9 0 1.6-.1 2.1-.3.6-.2 1-.5 1.3-.8l.9 1.9zm-4.7-7.9c-.4 0-.7.1-1.1.2s-.6.3-.9.5c-.3.2-.5.5-.7.8-.2.3-.3.6-.3 1h5.3c0-.7-.2-1.3-.6-1.8-.3-.5-.9-.7-1.7-.7zM180.3 15.7h3.8l.3 1.5h.1c.3-.5.8-.9 1.4-1.2.6-.4 1.4-.5 2.2-.5.5 0 1 .1 1.5.2s.9.4 1.2.7c.3.3.6.8.8 1.4.2.6.3 1.3.3 2.2v6.9H189v-6.3c0-.9-.2-1.6-.6-2-.4-.4-.9-.6-1.5-.6-.5 0-1 .2-1.5.5-.4.3-.7.7-.9 1.2v7.2h-2.8v-8.7h-1.5v-2.5zM199.9 11.2h4.5v9.6c0 1.1.1 2.2.2 3.3v.2h1.4v2.4h-3.5l-.3-1.4h-.1c-.1.3-.3.5-.6.7-.2.2-.5.4-.8.5-.3.2-.6.3-1 .4-.4.1-.7.1-1.1.1-.7 0-1.3-.1-1.9-.3-.6-.2-1.1-.6-1.6-1-.4-.5-.8-1.1-1.1-1.8-.3-.7-.4-1.6-.4-2.5 0-.9.1-1.8.4-2.5.3-.7.7-1.4 1.2-1.9s1.1-.9 1.8-1.2c.7-.3 1.4-.4 2.2-.4.4 0 .9 0 1.3.1s.7.1 1 .3v-2.1h-1.7v-2.5zm-.5 13.5c.5 0 1-.1 1.5-.4.4-.3.7-.7.8-1.2v-4.7c-.2-.2-.5-.3-.8-.4-.4-.1-.7-.1-1.1-.1s-.8.1-1.1.2c-.4.1-.7.3-1 .6-.3.3-.5.7-.7 1.1-.2.5-.2 1-.2 1.7 0 .9.2 1.7.7 2.3.3.6 1 .9 1.9.9zM109.4 37.9h2.8v10c0 1-.1 1.9-.4 2.6-.3.7-.6 1.3-1.1 1.8-.5.5-1 .8-1.7 1.1-.6.2-1.4.4-2.1.4-1.9 0-3.2-.5-4.1-1.4-.9-.9-1.3-2.3-1.3-4.1V37.9h2.9v9.7c0 1.2.2 2 .6 2.6.4.5 1.1.8 2 .8.9 0 1.5-.3 1.9-.9.4-.6.6-1.4.6-2.5v-9.7zM114 42.4h3.8l.3 1.5h.1c.3-.5.8-.9 1.4-1.2.6-.4 1.4-.5 2.2-.5.5 0 1 .1 1.5.2s.9.4 1.2.7c.3.3.6.8.8 1.4.2.6.3 1.3.3 2.2v6.9h-2.8v-6.3c0-.9-.2-1.6-.6-2-.4-.4-.9-.6-1.5-.6-.5 0-1 .2-1.5.5-.4.3-.7.7-.9 1.2v7.2h-2.8v-8.7H114v-2.5zM128.3 51.1h3.8v-6.2h-3.8v-2.4h6.6v8.7h4v2.4h-10.6v-2.5zm3.3-11.8c0-.5.2-.9.5-1.2.3-.3.8-.5 1.4-.5.6 0 1.1.2 1.4.5.4.3.5.7.5 1.2s-.2.9-.5 1.2c-.4.3-.8.5-1.4.5-.6 0-1-.2-1.4-.5-.3-.3-.5-.7-.5-1.2zM141.2 47.9c0-.9.1-1.8.4-2.5.3-.7.7-1.3 1.2-1.8s1.1-.9 1.8-1.1c.7-.3 1.5-.4 2.3-.4.9 0 1.7.1 2.4.4.7.3 1.3.7 1.8 1.2s.9 1.1 1.1 1.9c.3.7.4 1.5.4 2.4 0 .9-.1 1.8-.4 2.5-.3.7-.7 1.3-1.2 1.8s-1.1.9-1.8 1.1c-.7.3-1.5.4-2.3.4-.9 0-1.7-.1-2.4-.4-.7-.3-1.3-.7-1.8-1.2s-.9-1.1-1.1-1.9c-.3-.7-.4-1.5-.4-2.4zm2.9 0c0 .5.1.9.2 1.4.1.4.3.8.6 1.1.2.3.5.6.9.7.3.2.7.3 1.2.3.8 0 1.5-.3 2-.8s.8-1.4.8-2.6c0-1-.2-1.9-.7-2.5-.5-.6-1.2-.9-2.1-.9-.4 0-.8.1-1.1.2-.3.1-.6.3-.9.6-.3.3-.4.6-.6 1.1-.3.3-.3.8-.3 1.4zM154 42.4h3.8l.3 1.5h.1c.3-.5.8-.9 1.4-1.2.6-.4 1.4-.5 2.2-.5.5 0 1 .1 1.5.2s.9.4 1.2.7c.3.3.6.8.8 1.4.2.6.3 1.3.3 2.2v6.9h-2.8v-6.3c0-.9-.2-1.6-.6-2-.4-.4-.9-.6-1.5-.6-.5 0-1 .2-1.5.5-.4.3-.7.7-.9 1.2v7.2h-2.8v-8.7H154v-2.5zM109.9 75h2.4v4.4c-.5.3-1 .6-1.8.8-.7.2-1.4.3-2.2.3-.9 0-1.8-.1-2.7-.4-.9-.3-1.6-.8-2.2-1.4-.6-.6-1.2-1.5-1.5-2.5-.4-1-.6-2.3-.6-3.7 0-1.5.2-2.8.7-3.8.4-1 1-1.9 1.7-2.5.7-.6 1.5-1.1 2.3-1.4.8-.3 1.7-.4 2.5-.4.9 0 1.6.1 2.2.2.6.1 1.1.3 1.5.5v4.6h-2.4v-2.5c-.4-.1-.9-.1-1.4-.1-.6 0-1.1.1-1.6.3-.5.2-.9.5-1.3 1-.4.4-.6 1-.8 1.7-.2.7-.3 1.5-.3 2.4 0 .8.1 1.5.3 2.2.2.7.5 1.2.8 1.7.4.5.8.8 1.3 1.1.5.3 1.1.4 1.8.4.5 0 .9 0 1.4-.1V75zM114.5 74.6c0-.9.1-1.8.4-2.5.3-.7.7-1.3 1.2-1.8s1.1-.9 1.8-1.1c.7-.3 1.5-.4 2.3-.4.9 0 1.7.1 2.4.4.7.3 1.3.7 1.8 1.2s.9 1.1 1.1 1.9c.3.7.4 1.5.4 2.4 0 .9-.1 1.8-.4 2.5-.3.7-.7 1.3-1.2 1.8s-1.1.9-1.8 1.1c-.7.3-1.5.4-2.3.4-.9 0-1.7-.1-2.4-.4-.7-.3-1.3-.7-1.8-1.2s-.9-1.1-1.1-1.9c-.3-.7-.4-1.5-.4-2.4zm2.9 0c0 .5.1.9.2 1.4.1.4.3.8.6 1.1.2.3.5.6.9.7.3.2.7.3 1.2.3.8 0 1.5-.3 2-.8s.8-1.4.8-2.6c0-1-.2-1.9-.7-2.5-.5-.6-1.2-.9-2.1-.9-.4 0-.8.1-1.1.2-.3.1-.6.3-.9.6-.3.3-.4.6-.6 1.1s-.3.8-.3 1.4zM127.3 69.1h3.8l.3 1.5h.1c.3-.5.8-.9 1.4-1.2.6-.4 1.4-.5 2.2-.5.5 0 1 .1 1.5.2s.9.4 1.2.7c.3.3.6.8.8 1.4.2.6.3 1.3.3 2.2v6.9h-2.8V74c0-.9-.2-1.6-.6-2-.4-.4-.9-.6-1.5-.6-.5 0-1 .2-1.5.5-.4.3-.7.7-.9 1.2v7.2h-2.8v-8.7h-1.5v-2.5zM141.9 80.2v-2.4h2.5v-6.2h-2.6v-2.4h2.6v-.6c0-.7.1-1.3.4-1.8.2-.5.5-.9.9-1.2.4-.3.8-.6 1.3-.7s1-.2 1.6-.2c1 0 1.8.1 2.4.3.6.2 1.2.4 1.6.6l-.8 2.2c-.3-.2-.7-.3-1.1-.4-.4-.1-.9-.2-1.5-.2-.8 0-1.3.2-1.6.5-.3.4-.5.9-.5 1.6h4.5v2.4h-4.5v6.2h4.5v2.4h-9.7z"/></g></symbol><symbol viewBox="0 0 110 17" id="hex"><g fill="#FFF"><path d="M36 9.5c.7 0 1.2.7 1.2 1.3 0 .7-.5 1.4-1.2 1.4-.9 0-1.4-.7-1.4-1.4.1-.6.6-1.3 1.4-1.3M46 11.2c-.8.6-1.9 1-2.9 1-2.5 0-4.1-1.6-4.1-4 0-2.2 1.5-4 4.1-4 2 0 3.6 1.4 3.6 3.6 0 .5 0 .8-.1 1.1H41c.2 1.2 1.1 1.8 2.3 1.8.9 0 1.7-.3 2.2-.7l.5 1.2zm-5.2-3.8h3.8c0-.9-.6-1.7-1.8-1.7-1.1 0-1.8.7-2 1.7M52.8 8l2.7 4h-2.4l-1.8-2.8-1.9 2.8h-2.2l2.7-3.9-2.6-3.8h2.5l1.6 2.6 1.7-2.6h2.2zM63.4 10.9c-.6.9-1.8 1.3-3.1 1.3-2.5 0-4.2-1.6-4.2-4 0-2.2 1.6-4 4-4 1.3 0 2.4.3 3.1 1l-.9 1.6c-.6-.6-1.2-.8-1.9-.8-1.1 0-2.1.8-2.1 2.2 0 1.4 1.1 2.2 2.2 2.2.8 0 1.5-.4 2-.9l.9 1.4zM64.8 0h2.1v5c.5-.5 1.3-.8 2.2-.8 1.9 0 3.2 1 3.2 3.4V12h-2V7.8c0-1.1-.6-1.8-1.7-1.8-.6 0-1.2.4-1.7.9V12h-2.1V0zM83.5 4.3h2v.8c.5-.5 1.3-.9 2.2-.9 1.9 0 3.2.9 3.2 3.3V12h-2V7.8c0-1.2-.6-1.8-1.7-1.8-.7 0-1.2.5-1.7.9V12h-2V4.3zM108.4 11.2c-.8.6-1.9 1-2.9 1-2.5 0-4.1-1.6-4.1-4 0-2.2 1.5-4 4.1-4 2 0 3.6 1.4 3.6 3.6 0 .5 0 .8-.1 1.1h-5.6c.2 1.2 1.1 1.8 2.3 1.8.9 0 1.7-.3 2.2-.7l.5 1.2zm-5.1-3.8h3.8c0-.9-.6-1.7-1.8-1.7-1.2.1-1.8.7-2 1.7M101.4 12.7c-.3-.4-.6-.7-1-.9-.4-.2-.9-.4-1.4-.5-.5-.1-1-.1-1.6-.1H97c-.8 0-1.8.2-1.8.2s-.2-.5.3-.9c.2-.2.6-.4.6-.4 1.9-.1 3.2-1.4 3.2-3 0-.4-.1-.7-.2-1.1l1.4-.3-.1-1.7-2.5.5c-.6-.3-1.3-.5-2.1-.5-2.2 0-3.5 1.4-3.5 3.1 0 1.2.7 2.2 1.9 2.7-.7.6-1.5 2-.3 3.5l2-.3c.6-.1 1.1-.1 1.6-.1.7 0 1.2.1 1.6.3.7.4.8 1.1.3 1.7-.4.4-1 .6-1 .6l.9 1.6s1-.2 1.8-1.2c1.2-1.4.6-2.8.3-3.2m-5.6-7c1 0 1.5.6 1.5 1.4 0 .8-.6 1.3-1.5 1.3s-1.5-.6-1.5-1.3c0-.8.6-1.4 1.5-1.4M79.3 11.1c-.4.4-.7.7-1.2.9-.5.2-.9.3-1.4.3-.4 0-.7-.1-1.1-.2-.3-.1-.6-.3-.9-.5-.3-.2-.5-.5-.6-.8-.2-.3-.2-.7-.2-1.1 0-.5.1-.8.3-1.2.2-.3.4-.6.7-.8.3-.2.6-.4 1-.5.4-.1.8-.2 1.1-.3.4-.1.8-.1 1.2-.1h1.1c0-.4-.1-.9-.4-1.1-.3-.3-.8-.4-1.2-.4-.4 0-.8.1-1.1.3s-.6.4-1 .6L74.4 5c.5-.4 1-.9 1.6-1.1.7.1 1.2.1 1.9.1s1.2.1 1.7.3c.5.2.7.5 1 .8.3.3.5.8.6 1.3.1.5.2 1.1.2 1.7v4h-2v-1zm-.8-2.5h-.7c-.3 0-.5.1-.8.1-.3.1-.5.2-.7.3-.2.2-.3.4-.3.6 0 .3.1.5.4.7.2.1.5.2.8.2 1 0 1.7-.5 1.9-.8.1-.2.1-.4.1-.6v-.5h-.7zM30.8 11.3c-.5.5-1.2.9-2.2.9-2.2 0-3.6-1.6-3.6-3.9 0-2.4 1.7-4.1 4.2-4.1.7 0 1.2.1 1.6.4V.2h2v12h-2v-.9zm0-1.8V6.6c-.5-.3-1-.5-1.5-.5-1.2 0-2.2.8-2.2 2.2 0 1.4.9 2.1 1.9 2.1.7 0 1.4-.5 1.8-.9M23.7 7.7c0-2.2-1.7-3.6-3.6-3.6-1.2 0-2.2.4-2.8 1-.3-.3-.6-.6-1-.8-.6-.1-1-.3-1.8-.3-.7 0-2.3.2-3.4 1.4l1.2 1.2c.3-.3.6-.5 1-.6.3-.2.7-.3 1.1-.3.4 0 .9.1 1.2.4.3.3.4.7.4 1.2-1.3-.2-2.6-.1-3.4.1-.4.1-.7.3-1 .5-.4.1-.6.4-.8.7-.2.3-.4 1.3 0 2.2.7 1.4 2.4 1.7 4.2 1.1 1.2-.4 1.8-1.4 1.8-1.4.7 1.2 1.9 1.6 3.3 1.6 1.1 0 2.2-.3 2.9-1l-.6-1.6c-.5.3-1.3.8-2.2.8-1.2 0-2.1-.5-2.3-1.6h5.6c.2-.1.2-.5.2-1m-9.8 2.7c-.8 0-1.4-.2-1.3-.9.1-.8 1.3-.9 1.9-.9.5 0 1.5.1 1.5.1s-.4 1.7-2.1 1.7m4.2-3.1c.2-.8.8-1.5 1.9-1.6 1.1-.1 1.9.6 1.9 1.6h-3.8zM1.8.1h2.1v5c.5-.5 1.3-.8 2.2-.8 1.9 0 3.2 1 3.2 3.4v4.5h-2V7.9c0-1.1-.6-1.8-1.7-1.8-.6 0-1.3.5-1.7.9v5.1H1.8V.1z"/></g></symbol><symbol viewBox="0 0 256 209" preserveAspectRatio="xMidYMid" id="twitter"><path d="M256 25.45c-9.42 4.177-19.542 7-30.166 8.27 10.845-6.5 19.172-16.793 23.093-29.057a105.183 105.183 0 0 1-33.35 12.745C205.994 7.2 192.344.822 177.238.822c-29.007 0-52.524 23.516-52.524 52.52 0 4.117.465 8.125 1.36 11.97-43.65-2.19-82.35-23.1-108.255-54.876-4.52 7.757-7.11 16.78-7.11 26.404 0 18.222 9.274 34.297 23.366 43.716a52.312 52.312 0 0 1-23.79-6.57c-.003.22-.003.44-.003.66 0 25.448 18.104 46.676 42.13 51.5a52.592 52.592 0 0 1-23.718.9c6.683 20.867 26.08 36.052 49.062 36.476-17.975 14.086-40.622 22.483-65.228 22.483-4.24 0-8.42-.25-12.53-.734 23.243 14.903 50.85 23.598 80.51 23.598 96.607 0 149.434-80.03 149.434-149.435 0-2.278-.05-4.543-.152-6.795A106.748 106.748 0 0 0 256 25.45" class="esocial-svg etwitter"/></symbol></svg>